<svg width="640" height="480" viewBox="0 0 640 480" fill="none" xmlns="http://www.w3.org/2000/svg">
  <rect width="640" height="480" rx="36" fill="#F0FBFF"/>
  <path d="M214 152c0-24.301 19.699-44 44-44h124c24.301 0 44 19.699 44 44v176c0 24.301-19.699 44-44 44H258c-24.301 0-44-19.699-44-44V152Z" fill="#3DA5D9"/>
  <path d="M274 134c0-14.359 11.641-26 26-26h40c14.359 0 26 11.641 26 26v15h-92v-15Z" fill="#0D3B66"/>
  <circle cx="320" cy="241" r="49" fill="#ffffff" fill-opacity="0.9"/>
  <path d="M320 210c9 17 26 23 26 41 0 14.36-11.64 26-26 26s-26-11.64-26-26c0-18 17-24 26-41Z" fill="#3CCF91"/>
  <text x="320" y="418" text-anchor="middle" fill="#0D3B66" font-family="Trebuchet MS, Segoe UI, sans-serif" font-size="30" font-weight="700">
    Cocina impecable
  </text>
</svg>
